<?xml version="1.0" standalone="no"?>
<!DOCTYPE svg PUBLIC "-//W3C//DTD SVG 20010904//EN"
 "http://www.w3.org/TR/2001/REC-SVG-20010904/DTD/svg10.dtd">
<svg version="1.0" xmlns="http://www.w3.org/2000/svg"
 width="198.000000pt" height="198.000000pt" viewBox="0 0 198.000000 198.000000"
 preserveAspectRatio="xMidYMid meet">
<metadata>
Created by potrace 1.15, written by Peter Selinger 2001-2017
</metadata>
<g transform="translate(0.000000,198.000000) scale(0.100000,-0.100000)"
fill="#000000" stroke="none">
<path d="M610 1482 c0 -182 0 -182 85 -203 28 -6 58 -19 68 -27 30 -26 0 -42
-104 -53 -124 -14 -162 -22 -166 -36 -3 -7 14 -17 39 -23 78 -21 73 -2 76
-264 l2 -236 100 0 100 0 0 221 c0 130 -4 228 -10 239 -6 11 -27 24 -48 30
-78 21 -81 46 -6 56 33 4 35 3 15 -6 -19 -8 -21 -13 -11 -25 7 -8 28 -17 49
-21 20 -4 42 -11 49 -17 9 -7 12 -68 12 -243 l0 -234 100 0 100 0 0 230 c0
227 0 230 -22 244 -13 7 -34 16 -48 20 -69 16 -63 45 11 52 36 4 40 3 21 -6
-35 -15 -22 -32 33 -46 26 -7 52 -19 56 -26 5 -7 9 -115 9 -240 l0 -228 100 0
100 0 0 214 c0 118 -4 226 -9 240 -7 18 -23 28 -57 38 -96 27 -61 52 95 67 87
8 141 22 141 36 0 10 -61 35 -84 35 -14 0 -38 11 -53 24 l-28 24 -3 161 -3
161 -100 0 -99 0 0 -164 c0 -123 3 -166 13 -174 7 -7 38 -17 68 -23 58 -12 79
-24 79 -44 0 -15 -52 -35 -89 -34 -24 1 -24 2 7 10 61 18 34 44 -66 64 -57 12
-67 39 -70 212 l-4 153 -99 0 -99 0 0 -153 c0 -181 3 -190 85 -208 31 -7 63
-18 73 -25 15 -11 15 -14 2 -28 -8 -8 -35 -18 -60 -20 -42 -5 -43 -5 -12 4 60
19 35 45 -64 65 -63 12 -69 29 -72 206 l-4 159 -99 0 -99 0 0 -158z"/>
</g>
</svg>
